<?xml version="1.0" standalone="no"?>
<!DOCTYPE svg PUBLIC "-//W3C//DTD SVG 20010904//EN"
 "http://www.w3.org/TR/2001/REC-SVG-20010904/DTD/svg10.dtd">
<svg version="1.0" xmlns="http://www.w3.org/2000/svg"
 width="300.000000pt" height="79.000000pt" viewBox="0 0 300.000000 79.000000"
 preserveAspectRatio="xMidYMid meet">

<g transform="translate(0.000000,79.000000) scale(0.100000,-0.100000)"
fill="#000000" stroke="none">
<path d="M0 395 l0 -395 85 0 85 0 0 395 0 395 -85 0 -85 0 0 -395z"/>
<path d="M426 768 c-7 -13 -55 -102 -106 -198 l-93 -174 61 -116 c33 -63 80
-151 104 -195 l43 -80 115 -3 115 -2 30 57 30 58 118 3 c64 1 117 7 117 11 0
5 -15 35 -33 67 -31 56 -35 59 -78 64 l-45 5 47 89 46 88 106 -203 c58 -112
112 -212 119 -222 11 -15 26 -17 100 -15 l86 3 -199 380 c-110 209 -204 384
-208 388 -5 5 -84 -136 -177 -313 -138 -261 -171 -318 -180 -305 -6 9 -38 66
-70 128 l-57 113 99 189 c54 104 101 193 102 197 2 5 -37 8 -87 8 -83 0 -92
-2 -105 -22z"/>
<path d="M1060 782 c0 -17 395 -760 405 -762 5 -1 100 170 211 381 l202 384
-81 3 c-44 2 -86 1 -92 -2 -7 -2 -63 -102 -125 -220 l-113 -217 -34 63 c-19
35 -71 134 -116 220 l-82 158 -87 0 c-49 0 -88 -4 -88 -8z"/>
<path d="M2380 468 c0 -177 -3 -318 -7 -314 -4 4 -80 145 -168 313 -89 168
-165 305 -170 305 -8 0 -405 -747 -405 -763 0 -5 39 -9 88 -9 l87 0 55 106
c30 59 82 158 116 220 l60 114 48 -89 47 -90 -48 -3 c-47 -3 -48 -4 -80 -63
-18 -33 -33 -63 -33 -67 0 -5 53 -8 118 -8 l117 0 30 -58 30 -57 143 -3 142
-3 0 396 0 395 -85 0 -85 0 0 -322z"/>
<path d="M2713 597 c-57 -106 -103 -197 -103 -202 0 -5 46 -96 103 -202 l102
-193 93 0 93 0 -77 148 c-42 81 -89 170 -105 198 -28 49 -28 51 -11 80 10 16
57 104 105 197 l88 167 -93 0 -93 0 -102 -193z"/>
</g>
</svg>
